<svg width="10" height="14" viewBox="0 0 10 14" fill="none" xmlns="http://www.w3.org/2000/svg">
<path d="M2.12711 14C2.15111 13.208 2.16311 12.632 2.16311 12.272C2.16311 10.4 2.05511 8.726 1.83911 7.25C1.56311 5.198 1.11911 3.476 0.507109 2.084L2.81111 0.643999C3.07511 1.16 3.28511 1.652 3.44111 2.12C3.62111 2.588 3.77711 2.942 3.90911 3.182C4.05311 3.422 4.24511 3.614 4.48511 3.758C4.73711 3.89 5.07311 3.956 5.49311 3.956C6.54911 3.956 7.07711 3.284 7.07711 1.94C7.07711 1.712 7.05911 1.454 7.02311 1.166L9.29111 0.68C9.39911 1.196 9.45311 1.724 9.45311 2.264C9.45311 3.152 9.30311 3.98 9.00311 4.748C8.71511 5.516 8.27111 6.134 7.67111 6.602C7.08311 7.058 6.35711 7.286 5.49311 7.286C5.13311 7.286 4.78511 7.22 4.44911 7.088C4.56911 8.324 4.62911 9.722 4.62911 11.282C4.62911 12.158 4.61111 13.064 4.57511 14H2.12711Z" fill="#234894"/>
</svg>
